# xmcd
#
# Track frame offsets: 
#        150
#        14510
#        34807
#        53703
#        68033
#        83569
#        101166
#        120632
#        139009
#        153634
#
# Disc length: 2313 seconds
#
# Revision: 0
# Processed by: cddbd v1.5PL3 Copyright (c) Steve Scherf et al.
# Submitted via: ExactAudioCopy v0.95a4
#
DISCID=8009070a
DTITLE=Slim Lightfoot - EXIT
DYEAR=2004
DGENRE=Blues
TTITLE0=Stateswood Blues
TTITLE1=Groundhog
TTITLE2=Frankie and Johnny
TTITLE3=Honky Tonk Women
TTITLE4=Country Shack
TTITLE5=King Bee
TTITLE6=Ramblin' on my Mind
TTITLE7=Fishin' Blues
TTITLE8=You're Gonna Miss Me
TTITLE9=Exit
EXTD=
EXTT0=
EXTT1=
EXTT2=
EXTT3=
EXTT4=
EXTT5=
EXTT6=
EXTT7=
EXTT8=
EXTT9=
PLAYORDER=
